<?xml version="1.0" standalone="no"?>
<!DOCTYPE svg PUBLIC "-//W3C//DTD SVG 20010904//EN"
 "http://www.w3.org/TR/2001/REC-SVG-20010904/DTD/svg10.dtd">
<svg version="1.0" xmlns="http://www.w3.org/2000/svg"
 width="861.264565pt" height="1474.831556pt" viewBox="0 0 861.264565 1474.831556"
 preserveAspectRatio="xMidYMid meet">

<g transform="translate(-569.299102,1735.879987) scale(0.100000,-0.100000)"
fill="#0084d1" stroke="none">
<path d="M9575 17349 c-132 -8 -366 -34 -460 -50 -544 -93 -938 -225 -1321
-441 -619 -351 -1154 -878 -1536 -1513 -425 -706 -640 -1472 -541 -1920 48
-217 152 -378 271 -421 71 -25 288 -10 461 33 148 36 287 176 401 403 44 86
66 110 104 110 17 0 94 -30 176 -70 191 -91 309 -123 450 -123 89 0 116 4 180
28 166 61 309 152 436 279 103 104 160 193 230 361 25 60 53 117 61 125 12 13
23 5 86 -65 268 -299 443 -403 896 -531 279 -79 333 -88 551 -88 164 0 200 3
320 27 163 34 205 45 385 104 266 86 401 174 652 425 131 131 163 150 163 98
0 -11 4 -28 10 -38 5 -9 25 -51 44 -92 125 -271 371 -489 678 -601 71 -26 97
-31 183 -31 122 -1 188 20 404 122 80 38 161 72 179 76 45 9 65 -11 117 -121
137 -286 259 -377 576 -429 52 -9 135 -17 185 -18 74 -2 96 1 129 19 110 58
197 198 241 389 26 109 26 427 1 559 -52 271 -145 574 -245 805 -63 144 -227
465 -297 580 -190 314 -454 641 -732 908 -190 182 -306 279 -470 392 -584 400
-1209 625 -1918 689 -328 30 -770 38 -1050 20z m-969 -2313 c56 -26 111 -85
146 -155 18 -37 22 -63 23 -131 0 -103 -22 -156 -98 -232 -69 -69 -123 -92
-217 -92 -85 -1 -131 18 -201 81 -66 60 -83 103 -83 208 0 81 3 96 31 150 47
92 123 161 203 186 54 16 143 10 196 -15z m3042 -7 c113 -56 192 -172 200
-291 4 -59 0 -75 -25 -130 -58 -123 -161 -193 -283 -192 -80 0 -132 25 -205
98 -78 78 -100 132 -100 241 0 74 4 98 23 132 35 67 78 110 144 143 85 42 161
42 246 -1z"/>
<path d="M9182 13423 c-5 -10 -12 -283 -15 -608 -6 -572 -18 -873 -52 -1255
-9 -96 -20 -231 -25 -300 -5 -69 -16 -213 -25 -320 -44 -558 -59 -1013 -45
-1373 12 -314 32 -545 60 -707 10 -57 16 -97 51 -315 11 -71 29 -173 40 -225
30 -140 151 -570 215 -760 184 -548 198 -656 116 -910 -172 -537 -221 -710
-272 -960 -11 -58 -30 -141 -40 -185 -62 -253 -110 -577 -141 -935 -16 -194
-23 -896 -10 -1025 6 -60 18 -209 26 -330 8 -121 17 -242 21 -268 10 -80 69
-125 115 -88 33 27 35 96 14 510 -16 299 -17 374 -6 551 19 313 49 587 85 765
8 39 24 120 35 180 12 61 28 137 36 170 8 33 28 119 45 190 73 308 143 587
171 680 48 161 58 197 70 250 13 55 74 241 140 430 40 113 43 127 47 250 4
144 18 74 -131 655 -84 325 -217 975 -258 1252 -62 434 -88 1212 -59 1778 15
280 38 677 50 840 11 149 34 494 50 750 39 634 49 1302 19 1321 -8 5 -82 9
-166 9 -135 0 -153 -2 -161 -17z"/>
<path d="M10646 13428 c-18 -58 -11 -531 14 -1058 6 -113 15 -392 20 -620 11
-460 24 -773 40 -955 5 -66 17 -203 25 -305 45 -550 95 -993 140 -1255 9 -49
20 -115 25 -145 5 -30 16 -91 25 -135 10 -44 21 -100 26 -124 59 -288 228
-820 384 -1206 111 -275 271 -620 407 -875 147 -276 217 -424 288 -610 140
-368 190 -613 190 -933 0 -171 -13 -292 -50 -472 -45 -218 -94 -352 -197 -545
-141 -265 -260 -426 -554 -752 -257 -285 -317 -389 -256 -446 53 -50 113 -17
194 105 42 65 120 151 295 328 336 340 455 493 604 780 111 215 178 430 221
715 24 165 24 620 -1 775 -30 192 -65 347 -102 465 -43 138 -136 373 -200 507
-25 54 -70 150 -99 213 -29 63 -92 196 -140 295 -141 291 -169 352 -228 500
-102 259 -220 618 -325 995 -46 163 -115 481 -142 655 -5 33 -16 99 -24 147
-22 127 -96 731 -120 973 -30 307 -57 686 -81 1145 -14 267 -21 515 -45 1437
-5 231 -13 380 -20 393 -10 19 -20 20 -161 20 -111 0 -151 -3 -153 -12z"/>
<path d="M8805 13413 c-94 -6 -220 -24 -231 -34 -7 -6 -14 -80 -18 -201 -9
-251 -34 -596 -56 -773 -11 -92 -36 -300 -50 -425 -63 -542 -103 -822 -165
-1135 -18 -93 -38 -201 -45 -240 -18 -99 -126 -636 -145 -720 -9 -38 -20 -90
-25 -115 -5 -25 -28 -133 -50 -240 -37 -176 -71 -355 -116 -600 -9 -47 -26
-141 -40 -210 -85 -443 -123 -801 -154 -1446 -17 -364 -92 -693 -237 -1042
-125 -302 -263 -527 -491 -799 -143 -171 -169 -207 -217 -302 -77 -154 -98
-274 -53 -305 53 -37 96 -11 128 76 30 81 74 176 97 210 19 27 132 153 259
288 172 183 336 400 456 605 60 100 102 192 173 370 108 273 155 486 209 945
9 74 21 167 26 205 5 39 16 129 26 200 34 272 87 577 144 835 26 117 54 248
90 415 22 105 61 278 87 385 80 340 132 568 188 825 31 138 59 268 64 290 34
147 95 502 120 700 6 44 15 116 21 160 16 122 38 318 60 540 11 110 27 263 35
340 16 156 30 315 45 510 14 183 31 655 24 677 -6 19 -23 20 -159 11z"/>
<path d="M11194 13399 c-20 -25 -23 -112 -13 -380 11 -303 21 -446 69 -974 49
-534 97 -907 160 -1235 10 -52 26 -138 35 -190 22 -124 48 -255 81 -410 14
-69 30 -143 34 -165 34 -166 111 -463 162 -630 64 -209 82 -260 230 -655 107
-284 329 -762 534 -1150 298 -565 458 -914 614 -1346 154 -423 213 -828 181
-1255 -6 -86 -9 -163 -5 -172 3 -8 19 -21 35 -27 40 -17 76 0 94 43 47 113 57
677 16 939 -6 35 -17 113 -27 173 -33 220 -91 449 -190 743 -71 210 -343 916
-410 1060 -19 40 -34 75 -34 77 0 2 -13 32 -29 67 -16 35 -48 108 -71 163 -24
55 -53 123 -65 150 -142 314 -432 1131 -539 1520 -88 322 -211 902 -266 1265
-68 448 -98 686 -150 1215 -5 55 -16 170 -25 255 -8 85 -20 223 -25 305 -5 83
-12 168 -15 190 -3 22 -10 118 -14 213 -5 95 -14 179 -20 186 -7 8 -47 16
-103 19 -51 4 -125 10 -163 13 -54 5 -73 3 -81 -7z"/>
<path d="M8240 13364 c-139 -20 -161 -27 -169 -48 -5 -11 -12 -86 -15 -166 -9
-195 -50 -631 -91 -965 -8 -66 -19 -158 -25 -205 -5 -47 -17 -125 -25 -175 -9
-49 -22 -133 -30 -185 -16 -102 -35 -207 -67 -365 -11 -55 -26 -129 -33 -165
-12 -59 -39 -177 -65 -285 -5 -22 -21 -89 -35 -149 -30 -128 -95 -368 -131
-481 -215 -688 -355 -1075 -519 -1441 -37 -82 -84 -189 -105 -239 -21 -49 -64
-144 -95 -210 -48 -103 -216 -499 -269 -633 -14 -38 -82 -224 -121 -337 -82
-230 -196 -673 -224 -868 -5 -34 -16 -109 -25 -167 -42 -277 -59 -770 -36
-1030 13 -143 14 -150 40 -178 26 -28 73 -29 100 -2 20 20 20 28 14 238 -18
591 74 1140 297 1782 22 63 52 149 66 190 14 41 57 145 95 230 39 85 77 171
85 190 9 19 77 163 153 320 269 556 463 994 545 1230 19 52 52 147 75 210 181
506 384 1246 464 1700 9 47 22 123 31 170 44 241 49 270 85 530 29 207 48 351
60 460 6 52 15 129 21 170 26 207 68 798 60 868 -1 12 -51 14 -111 6z"/>
<path d="M11774 13349 c-12 -19 13 -501 46 -894 12 -147 35 -345 60 -525 10
-74 26 -196 35 -270 35 -284 95 -611 171 -935 194 -821 353 -1321 599 -1880
51 -115 105 -239 120 -275 32 -77 44 -104 142 -320 42 -91 108 -228 147 -305
80 -156 213 -460 318 -725 176 -442 247 -710 295 -1110 25 -207 25 -730 0
-921 -9 -75 -14 -144 -11 -153 15 -40 89 -49 115 -13 37 52 62 207 80 509 18
313 -12 774 -72 1085 -24 124 -88 379 -125 497 -64 201 -203 561 -291 755 -27
58 -58 130 -223 516 -54 127 -130 303 -169 393 -39 89 -92 220 -117 290 -26
70 -62 170 -81 222 -48 130 -170 488 -198 580 -102 330 -111 361 -194 685 -88
338 -194 900 -245 1290 -65 499 -101 873 -125 1295 -5 85 -12 163 -16 173 -4
9 -19 20 -34 23 -14 2 -42 9 -62 14 -50 14 -156 13 -165 -1z"/>
<path d="M12820 13276 c-178 -75 -308 -91 -470 -60 -45 8 -89 13 -96 10 -19
-7 -18 -176 1 -491 8 -132 15 -275 15 -317 0 -100 11 -112 89 -102 110 12 323
85 352 120 18 21 53 17 78 -10 94 -100 262 -65 521 107 135 91 300 276 316
356 6 29 5 31 -25 31 -63 0 -279 66 -351 107 -65 38 -156 119 -192 172 -56 82
-92 121 -113 120 -11 0 -67 -19 -125 -43z"/>
<path d="M7004 13272 c-16 -15 -54 -60 -84 -99 -52 -68 -141 -138 -235 -186
-51 -25 -157 -55 -228 -62 -37 -4 -70 -11 -73 -16 -3 -5 11 -40 31 -78 41 -77
154 -194 280 -290 131 -99 330 -179 422 -168 36 4 86 28 144 69 14 9 31 4 90
-25 72 -35 301 -100 399 -113 47 -6 48 -6 58 27 20 63 43 351 58 740 5 122 4
168 -5 173 -6 4 -51 -3 -99 -16 -73 -19 -111 -23 -237 -23 -159 1 -168 3 -355
74 -78 30 -131 28 -166 -7z"/>
<path d="M9965 12250 c-95 -47 -124 -155 -145 -535 -37 -676 -51 -1327 -39
-1820 9 -338 29 -715 49 -880 5 -44 16 -154 25 -245 48 -489 109 -880 191
-1220 14 -58 45 -199 69 -315 24 -115 56 -264 70 -330 56 -262 105 -551 130
-775 52 -454 43 -1131 -20 -1520 -36 -220 -77 -380 -300 -1165 -80 -279 -145
-610 -145 -734 0 -53 4 -72 18 -84 38 -34 88 -13 120 49 6 11 24 95 41 188 50
271 70 335 239 791 153 414 207 585 272 865 174 752 141 1579 -105 2615 -14
61 -32 137 -40 170 -73 309 -157 712 -195 935 -59 350 -69 418 -84 560 -37
340 -34 288 -76 1160 -6 118 -10 476 -10 796 0 843 12 943 126 1065 57 62 74
106 74 192 0 86 -14 135 -52 182 -59 71 -139 92 -213 55z"/>
<path d="M10336 10878 c-24 -58 -96 -348 -107 -432 -22 -176 -23 -186 -6 -186
21 0 81 124 113 235 20 73 27 120 31 246 4 113 3 158 -6 163 -7 5 -17 -5 -25
-26z"/>
<path d="M10451 9458 c-11 -46 -27 -108 -35 -138 -20 -67 -40 -162 -66 -300
-11 -58 -25 -130 -31 -160 -6 -30 -26 -97 -45 -148 -36 -97 -41 -133 -24 -177
18 -48 51 -229 66 -360 16 -150 20 -165 40 -165 49 0 146 285 198 585 29 166
17 428 -35 775 -31 206 -37 213 -68 88z"/>
<path d="M8822 8603 c-6 -16 -21 -64 -32 -108 -12 -44 -43 -147 -70 -230 -182
-571 -367 -1328 -427 -1750 -21 -149 -24 -751 -5 -910 46 -385 117 -726 231
-1115 45 -152 57 -197 92 -350 7 -30 13 -107 13 -170 1 -101 -2 -122 -23 -168
-27 -59 -79 -110 -122 -119 -38 -7 -69 -47 -69 -89 0 -25 7 -38 31 -55 28 -20
34 -21 72 -9 266 79 329 333 215 860 -11 52 -26 124 -34 160 -7 36 -26 121
-42 190 -84 363 -132 747 -132 1060 0 268 37 613 94 870 8 36 21 98 30 138 15
69 68 284 99 402 21 81 53 186 107 360 26 85 60 198 75 250 14 52 45 151 67
219 47 142 49 123 -34 300 -27 58 -63 146 -80 198 -17 51 -35 93 -39 93 -3 0
-11 -12 -17 -27z"/>
<path d="M9182 7582 c-59 -153 -241 -736 -296 -942 -84 -321 -108 -494 -108
-780 0 -210 9 -313 47 -541 32 -191 38 -209 75 -209 23 0 70 25 81 42 11 17
10 99 -1 163 -64 352 -51 637 50 1044 56 229 93 327 205 556 113 231 140 312
132 400 -10 107 -103 336 -139 343 -12 2 -24 -18 -46 -76z"/>
<path d="M11227 7343 c-10 -9 -8 -244 3 -523 21 -524 -29 -902 -183 -1400 -46
-146 -72 -261 -87 -373 -11 -80 -10 -90 6 -108 21 -23 61 -25 91 -4 28 20 40
57 57 182 12 81 28 135 79 265 161 405 248 806 275 1268 7 116 8 311 3 398 -1
7 -17 19 -35 27 -37 16 -59 45 -145 188 -56 92 -54 91 -64 80z"/>
</g>
</svg>
